<svg viewBox="0 0 512 512" xmlns="http://www.w3.org/2000/svg" role="img" aria-label="KASAI Concept 7 app icon">
  <defs>
    <linearGradient id="bg7" x1="0" y1="0" x2="1" y2="1">
      <stop offset="0%" stop-color="#080812"/>
      <stop offset="100%" stop-color="#0E0818"/>
    </linearGradient>
    <linearGradient id="c7a" x1="0" y1="0" x2="0" y2="1">
      <stop offset="0%" stop-color="#06B6D4"/>
      <stop offset="50%" stop-color="#8B5CF6"/>
      <stop offset="100%" stop-color="#EC4899"/>
    </linearGradient>
    <linearGradient id="c7b" x1="0" y1="0" x2="0" y2="1">
      <stop offset="0%" stop-color="#22D3EE"/>
      <stop offset="50%" stop-color="#A78BFA"/>
      <stop offset="100%" stop-color="#F472B6"/>
    </linearGradient>
    <filter id="glow7">
      <feGaussianBlur stdDeviation="10"/>
    </filter>
  </defs>
  <rect width="512" height="512" fill="url(#bg7)"/>
  <g filter="url(#glow7)" opacity="0.4">
    <path d="M200 70 C320 120 320 180 200 230 C80 280 80 340 200 390 C260 415 300 435 320 445"
      fill="none" stroke="url(#c7a)" stroke-width="10" stroke-linecap="round"/>
  </g>
  <path d="M200 70 C320 120 320 180 200 230 C80 280 80 340 200 390 C260 415 300 435 320 445"
    fill="none" stroke="url(#c7a)" stroke-width="5" stroke-linecap="round"/>
  <g filter="url(#glow7)" opacity="0.4">
    <path d="M312 70 C192 120 192 180 312 230 C432 280 432 340 312 390 C252 415 212 435 192 445"
      fill="none" stroke="url(#c7b)" stroke-width="10" stroke-linecap="round"/>
  </g>
  <path d="M312 70 C192 120 192 180 312 230 C432 280 432 340 312 390 C252 415 212 435 192 445"
    fill="none" stroke="url(#c7b)" stroke-width="5" stroke-linecap="round"/>
  <line x1="222" y1="100" x2="290" y2="100" stroke="white" stroke-width="1.5" opacity="0.15" stroke-linecap="round"/>
  <line x1="210" y1="150" x2="302" y2="150" stroke="white" stroke-width="1.5" opacity="0.12" stroke-linecap="round"/>
  <line x1="235" y1="200" x2="277" y2="200" stroke="white" stroke-width="1.5" opacity="0.15" stroke-linecap="round"/>
  <line x1="210" y1="265" x2="302" y2="265" stroke="white" stroke-width="1.5" opacity="0.12" stroke-linecap="round"/>
  <line x1="230" y1="315" x2="282" y2="315" stroke="white" stroke-width="1.5" opacity="0.15" stroke-linecap="round"/>
  <line x1="210" y1="365" x2="302" y2="365" stroke="white" stroke-width="1.5" opacity="0.12" stroke-linecap="round"/>
  <line x1="235" y1="415" x2="277" y2="415" stroke="white" stroke-width="1.5" opacity="0.15" stroke-linecap="round"/>
  <circle cx="256" cy="150" r="4" fill="white" opacity="0.3"/>
  <circle cx="256" cy="310" r="4" fill="white" opacity="0.3"/>
</svg>
