<svg width="400" height="400" viewBox="0 0 120 120" xmlns="http://www.w3.org/2000/svg">
  <defs>
    <linearGradient id="b4-bg" x1="0" y1="0" x2="1" y2="1">
      <stop offset="0%" stop-color="#1a0a00"/>
      <stop offset="50%" stop-color="#0e0810"/>
      <stop offset="100%" stop-color="#080010"/>
    </linearGradient>
    <linearGradient id="b4-fire" x1="0.5" y1="0" x2="0.5" y2="1">
      <stop offset="0%" stop-color="#ffca28"/>
      <stop offset="45%" stop-color="#ff6b00"/>
      <stop offset="100%" stop-color="#ff2d55"/>
    </linearGradient>
    <filter id="b4-glow">
      <feGaussianBlur stdDeviation="2.5" result="blur"/>
      <feMerge><feMergeNode in="blur"/><feMergeNode in="SourceGraphic"/></feMerge>
    </filter>
  </defs>

  <rect width="120" height="120" rx="26" fill="url(#b4-bg)"/>
  <circle cx="60" cy="60" r="56" fill="#0f0f1a" stroke="rgba(255,107,0,0.25)" stroke-width="1.5"/>
  <circle cx="60" cy="60" r="50" fill="none" stroke="rgba(255,255,255,0.04)" stroke-width="1"/>

  <g filter="url(#b4-glow)" stroke="#ff8a3d" stroke-linecap="round" stroke-linejoin="round" fill="none">
    <circle cx="60" cy="24" r="7" stroke-width="3"/>
    <path d="M60,33 L60,54" stroke-width="3"/>
    <path d="M60,38 L48,26" stroke-width="3"/>
    <path d="M60,38 L72,26" stroke-width="3"/>
    <path d="M60,54 L48,66 L42,62" stroke-width="3"/>
    <path d="M60,54 L72,66 L78,62" stroke-width="3"/>
  </g>

  <path d="M60,80 C63,74 68,72 67,68 C66.5,66 65,65 65.5,62 C67,66 68.5,67 68,64 C70,67 70.5,70 69,74 C67,78 53,78 51,74 C49.5,70 50,67 52,64 C51.5,67 53,66 54.5,62 C55,65 53.5,66 53,68 C52,72 57,74 60,80Z" fill="url(#b4-fire)"/>
  <path d="M60,70 C60.8,68 62,67.5 61.8,66 C61,67 60.5,67.2 60,66.5 C59.5,67.2 59,67 58.2,66 C58,67.5 59.2,68 60,70Z" fill="rgba(255,255,200,0.5)"/>

  <ellipse cx="60" cy="82" rx="20" ry="5" fill="none" stroke="rgba(255,107,0,0.2)" stroke-width="1"/>
  <ellipse cx="60" cy="86" rx="28" ry="6" fill="none" stroke="rgba(255,107,0,0.1)" stroke-width="1"/>
  <circle cx="40" cy="76" r="1.5" fill="#ffca28" opacity="0.5"/>
  <circle cx="80" cy="76" r="1.5" fill="#ff6b00" opacity="0.5"/>
  <circle cx="36" cy="82" r="1" fill="#ff2d55" opacity="0.3"/>
  <circle cx="84" cy="82" r="1" fill="#ff9500" opacity="0.3"/>
</svg>
