<svg width="400" height="400" viewBox="0 0 400 400" xmlns="http://www.w3.org/2000/svg">
  <defs>
    <linearGradient id="bg-p" x1="0" y1="0" x2="1" y2="1">
      <stop offset="0%" stop-color="#1a0a00"/>
      <stop offset="50%" stop-color="#0e0810"/>
      <stop offset="100%" stop-color="#080010"/>
    </linearGradient>
    <linearGradient id="flame-p" x1="0.3" y1="0" x2="0.7" y2="1">
      <stop offset="0%" stop-color="#ffca28"/>
      <stop offset="25%" stop-color="#ff9500"/>
      <stop offset="55%" stop-color="#ff6b00"/>
      <stop offset="80%" stop-color="#ff3d00"/>
      <stop offset="100%" stop-color="#ff2d55"/>
    </linearGradient>
    <linearGradient id="inner-p" x1="0.3" y1="0" x2="0.7" y2="1">
      <stop offset="0%" stop-color="#fff8e7"/>
      <stop offset="40%" stop-color="#ffca28"/>
      <stop offset="100%" stop-color="#ff9500"/>
    </linearGradient>
    <linearGradient id="glow-p" x1="0" y1="0" x2="0" y2="1">
      <stop offset="0%" stop-color="#ff6b00" stop-opacity="0.4"/>
      <stop offset="100%" stop-color="#ff6b00" stop-opacity="0"/>
    </linearGradient>
    <filter id="blur-p"><feGaussianBlur stdDeviation="12"/></filter>
  </defs>
  <rect width="400" height="400" rx="88" fill="url(#bg-p)"/>
  <rect x="1" y="1" width="398" height="398" rx="87" fill="none" stroke="rgba(255,107,0,0.25)" stroke-width="1.5"/>
  <rect x="10" y="10" width="380" height="380" rx="80" fill="none" stroke="rgba(255,255,255,0.04)" stroke-width="1"/>
  <ellipse cx="200" cy="310" rx="90" ry="30" fill="url(#glow-p)" filter="url(#blur-p)"/>
  <path d="M200,60 C220,90 260,110 255,160 C252,185 238,195 245,220 C260,190 280,175 275,145 C295,175 300,215 285,250 C270,285 240,305 240,340 C225,310 235,285 220,270 C210,290 215,315 200,340 C185,315 190,290 180,270 C165,285 175,310 160,340 C160,305 130,285 115,250 C100,215 105,175 125,145 C120,175 140,190 155,220 C162,195 148,185 145,160 C140,110 180,90 200,60Z" fill="url(#flame-p)"/>
  <path d="M200,120 C210,140 230,155 226,185 C224,200 215,208 220,225 C235,205 245,188 240,165 C255,188 258,215 245,245 C238,262 222,274 220,300 C210,278 218,260 205,248 C200,265 204,282 200,300 C196,282 200,265 195,248 C182,260 190,278 180,300 C178,274 162,262 155,245 C142,215 145,188 160,165 C155,188 165,205 180,225 C185,208 176,200 174,185 C170,155 190,140 200,120Z" fill="url(#inner-p)" opacity="0.85"/>
  <ellipse cx="200" cy="148" rx="12" ry="20" fill="rgba(255,255,255,0.7)" opacity="0.5"/>
  <rect x="80" y="362" width="240" height="2" rx="1" fill="rgba(255,107,0,0.5)"/>
  <rect x="120" y="368" width="160" height="1.5" rx="0.75" fill="rgba(255,61,0,0.3)"/>
</svg>
